<?xml version="1.0" standalone="no"?>
<!DOCTYPE svg PUBLIC "-//W3C//DTD SVG 20010904//EN"
 "http://www.w3.org/TR/2001/REC-SVG-20010904/DTD/svg10.dtd">
<svg version="1.0" xmlns="http://www.w3.org/2000/svg"
 width="700.000000pt" height="700.000000pt" viewBox="0 0 700.000000 700.000000"
 preserveAspectRatio="xMidYMid meet">
<metadata>
Created by potrace 1.11, written by Peter Selinger 2001-2013
</metadata>
<g transform="translate(0.000000,700.000000) scale(0.100000,-0.100000)"
fill="#000000" stroke="none">
<path d="M3159 6936 c-2 -2 -41 -7 -86 -10 -45 -4 -90 -9 -101 -11 -10 -2 -43
-6 -73 -10 -144 -17 -405 -81 -579 -140 -423 -145 -822 -375 -1135 -655 -71
-64 -259 -254 -319 -323 -258 -296 -464 -650 -614 -1052 -30 -80 -90 -277 -98
-325 -3 -14 -11 -50 -19 -80 -7 -30 -16 -75 -20 -100 -10 -59 -13 -78 -19 -98
-3 -9 -8 -46 -11 -82 -4 -36 -9 -76 -11 -90 -21 -154 -21 -583 0 -695 2 -11 7
-49 11 -85 4 -36 9 -74 11 -85 2 -11 9 -48 14 -82 44 -272 176 -659 318 -933
152 -294 331 -543 571 -795 99 -103 296 -277 381 -335 19 -14 41 -30 47 -36 7
-7 28 -22 48 -34 19 -12 35 -26 35 -31 0 -5 3 -8 8 -7 13 2 42 -14 37 -21 -2
-4 1 -8 8 -8 7 0 37 -15 67 -34 30 -20 62 -38 70 -42 8 -4 33 -18 55 -32 22
-14 57 -33 78 -42 20 -10 37 -21 37 -25 0 -5 6 -8 13 -8 6 0 48 -17 92 -38 44
-21 118 -54 165 -72 47 -19 87 -36 90 -39 3 -3 12 -8 20 -10 31 -7 35 -8 50
-14 18 -7 93 -31 100 -32 33 -5 66 -20 78 -33 7 -9 11 -11 7 -4 -4 7 0 12 9
12 9 0 16 -4 16 -10 0 -5 7 -7 15 -4 8 3 20 2 27 -2 7 -4 19 -9 28 -10 8 -1
47 -9 85 -18 39 -10 90 -20 115 -23 25 -3 47 -8 50 -12 3 -3 21 -7 40 -7 34
-1 105 -10 105 -14 0 -1 23 -3 50 -5 28 -2 86 -7 130 -11 44 -3 99 -6 123 -5
29 0 41 -3 36 -11 -5 -7 -3 -8 7 -2 21 13 179 13 172 0 -4 -6 1 -5 10 3 10 8
20 11 24 8 3 -4 14 -2 24 4 13 7 19 6 19 -1 0 -6 5 -8 11 -4 6 3 30 8 53 9 90
7 170 16 178 21 4 3 8 -1 8 -8 0 -10 2 -10 9 1 6 8 20 12 39 9 18 -3 29 0 25
5 -4 6 5 8 21 5 14 -3 26 -2 26 2 0 5 18 7 39 6 22 0 37 2 35 5 -3 6 44 16
104 21 12 1 22 5 22 9 0 3 19 10 43 14 23 4 51 9 62 12 11 2 47 12 81 23 33
11 69 22 80 25 10 2 57 18 104 35 47 17 92 33 100 36 8 3 42 18 75 33 41 20
62 25 67 17 5 -7 8 -4 8 7 0 9 7 17 16 17 9 0 32 9 50 21 19 11 39 17 45 13 8
-4 9 -3 5 4 -6 11 6 16 27 13 4 0 7 4 7 10 0 6 7 8 16 5 8 -3 13 -2 10 2 -7
12 63 44 76 36 7 -4 8 -2 4 4 -4 7 2 16 16 22 13 5 55 30 93 55 39 24 85 52
103 62 17 9 32 20 32 25 0 4 7 8 15 8 8 0 15 5 15 10 0 6 4 10 9 10 6 0 22 11
37 25 15 14 33 25 39 25 7 0 16 7 19 16 4 9 9 14 12 11 3 -2 16 5 29 17 51 46
82 73 130 111 27 22 69 59 92 83 23 23 44 42 47 42 3 0 25 21 48 46 94 102
121 129 130 126 5 -1 7 1 4 6 -7 11 63 88 76 84 5 -1 7 2 3 8 -3 6 7 24 24 40
16 17 27 30 25 30 -3 0 16 28 42 63 50 66 73 92 59 68 -5 -10 -4 -12 4 -7 6 4
9 11 6 16 -3 5 18 43 45 85 28 41 74 115 102 163 28 48 55 90 60 93 6 3 9 8 8
10 -4 12 88 209 103 220 5 3 9 10 9 15 1 13 8 35 21 64 6 14 11 28 13 33 1 4
3 9 4 12 3 6 5 12 15 42 4 13 12 23 17 23 5 0 7 4 4 9 -10 15 21 86 35 83 11
-3 11 -1 2 9 -7 7 -9 18 -4 28 5 9 14 41 21 71 7 30 15 60 19 65 3 6 6 15 7
20 1 6 7 30 14 55 7 25 14 54 16 65 2 11 9 45 16 75 6 30 11 58 10 63 -1 4 2
7 7 7 4 0 6 12 3 26 -4 21 -2 25 9 19 11 -7 12 -6 2 7 -7 8 -11 17 -8 19 5 5
10 38 21 124 11 81 11 88 13 141 1 30 5 43 12 38 8 -4 8 -1 2 12 -5 11 -8 30
-7 44 7 63 7 247 0 258 -4 6 -4 12 1 12 4 0 8 11 8 25 0 14 -2 25 -5 25 -3 0
-6 21 -6 48 -3 104 -19 252 -39 349 -9 45 -9 61 -1 56 8 -5 8 -3 0 8 -14 19
-36 128 -27 142 3 5 2 7 -4 4 -5 -3 -15 23 -23 61 -16 78 -15 73 -23 92 -8 23
-29 90 -31 103 -1 7 -5 18 -9 25 -5 6 -5 12 -1 12 3 0 1 7 -6 15 -6 8 -9 19
-5 25 3 5 1 10 -4 10 -6 0 -11 7 -11 15 0 8 -4 23 -9 33 -5 9 -17 40 -26 67
-20 57 -46 117 -118 265 -27 58 -50 110 -50 117 0 7 -3 10 -7 8 -3 -2 -18 19
-33 48 -36 70 -59 109 -75 125 -7 8 -11 21 -8 29 3 8 2 12 -3 9 -5 -3 -18 9
-30 27 -11 17 -26 41 -33 52 -7 11 -15 22 -18 25 -3 3 -27 34 -53 70 -26 36
-57 78 -70 93 -12 16 -21 32 -19 38 1 5 -2 8 -7 7 -4 -2 -24 16 -43 39 -83 99
-324 343 -339 343 -4 0 -9 4 -11 8 -13 34 -380 296 -538 386 -175 99 -481 234
-616 271 -32 9 -68 20 -79 25 -25 12 -250 68 -302 75 -21 4 -45 8 -53 10 -8 2
-31 7 -50 10 -19 3 -46 7 -60 10 -14 3 -51 7 -83 10 -32 4 -68 9 -80 12 -25 6
-552 15 -558 9z"/>
<path d="M6436 5007 c3 -10 9 -15 12 -12 3 3 0 11 -7 18 -10 9 -11 8 -5 -6z"/>
<path d="M6593 4635 c0 -8 4 -12 9 -9 5 3 6 10 3 15 -9 13 -12 11 -12 -6z"/>
<path d="M6760 3120 c-9 -6 -10 -10 -3 -10 6 0 15 5 18 10 8 12 4 12 -15 0z"/>
<path d="M6590 2639 c0 -5 5 -7 10 -4 6 3 10 8 10 11 0 2 -4 4 -10 4 -5 0 -10
-5 -10 -11z"/>
<path d="M6555 2440 c-3 -5 -1 -10 4 -10 6 0 11 5 11 10 0 6 -2 10 -4 10 -3 0
-8 -4 -11 -10z"/>
<path d="M6473 2193 c0 -9 4 -10 14 -2 7 6 13 12 13 14 0 1 -6 2 -13 2 -8 0
-14 -6 -14 -14z"/>
<path d="M6475 2091 c-3 -5 -2 -12 3 -15 5 -3 9 1 9 9 0 17 -3 19 -12 6z"/>
<path d="M6276 1838 c3 -5 10 -6 15 -3 13 9 11 12 -6 12 -8 0 -12 -4 -9 -9z"/>
<path d="M5909 1323 c-13 -16 -12 -17 4 -4 9 7 17 15 17 17 0 8 -8 3 -21 -13z"/>
<path d="M5435 840 c-3 -5 -1 -10 4 -10 6 0 11 5 11 10 0 6 -2 10 -4 10 -3 0
-8 -4 -11 -10z"/>
<path d="M5230 799 c0 -5 5 -7 10 -4 6 3 10 8 10 11 0 2 -4 4 -10 4 -5 0 -10
-5 -10 -11z"/>
<path d="M4515 360 c-3 -5 -1 -10 4 -10 6 0 11 5 11 10 0 6 -2 10 -4 10 -3 0
-8 -4 -11 -10z"/>
<path d="M4210 281 c0 -6 4 -13 10 -16 6 -3 7 1 4 9 -7 18 -14 21 -14 7z"/>
</g>
</svg>
