<?xml version="1.0" standalone="no"?>
<!DOCTYPE svg PUBLIC "-//W3C//DTD SVG 20010904//EN"
 "http://www.w3.org/TR/2001/REC-SVG-20010904/DTD/svg10.dtd">
<svg version="1.0" xmlns="http://www.w3.org/2000/svg"
 width="100.000000pt" height="100.000000pt" viewBox="0 0 100.000000 100.000000"
 preserveAspectRatio="xMidYMid meet">
<metadata>
Created by potrace 1.11, written by Peter Selinger 2001-2013
</metadata>
<g transform="translate(0.000000,100.000000) scale(0.100000,-0.100000)"
fill="#000000" stroke="none">
<path d="M434 971 c-21 -16 -128 -119 -238 -230 l-199 -201 7 -47 c6 -47 13
-54 229 -269 239 -237 250 -244 315 -210 46 24 440 428 447 459 4 15 4 39 0
54 -7 31 -402 435 -447 459 -40 21 -71 17 -114 -15z m-4 -180 c0 -40 5 -63 15
-71 13 -11 15 -6 15 39 0 39 4 51 15 51 16 0 18 -7 15 -58 -2 -43 9 -92 22
-92 5 0 17 18 26 40 17 41 42 54 42 23 0 -10 -11 -36 -23 -59 -27 -46 -20 -78
18 -91 30 -11 165 -137 165 -155 0 -25 -52 -44 -115 -42 -33 1 -66 4 -73 6 -8
2 -20 -18 -31 -51 -10 -29 -32 -66 -48 -82 l-29 -29 -79 81 c-44 45 -75 84
-70 85 34 13 79 50 115 96 40 49 41 53 21 58 -31 7 -61 37 -61 60 0 29 46 26
92 -5 20 -14 39 -25 42 -25 14 0 -12 43 -54 90 -50 55 -52 62 -52 150 0 35 2
40 17 40 12 0 15 -13 15 -59z"/>
</g>
</svg>
